M48
; DRILL file {KiCad 7.0.7} date 2024 January 09, Tuesday 18:40:05
; FORMAT={-:-/ absolute / inch / decimal}
; #@! TF.CreationDate,2024-01-09T18:40:05+08:00
; #@! TF.GenerationSoftware,Kicad,Pcbnew,7.0.7
; #@! TF.FileFunction,Plated,1,2,PTH
FMAT,2
INCH
; #@! TA.AperFunction,Plated,PTH,ViaDrill
T1C0.0236
; #@! TA.AperFunction,Plated,PTH,ComponentDrill
T2C0.0315
; #@! TA.AperFunction,Plated,PTH,ViaDrill
T3C0.0551
; #@! TA.AperFunction,Plated,PTH,ViaDrill
T4C0.0717
%
G90
G05
T1
X7.7087Y-5.2047
X7.7087Y-5.3898
X7.7087Y-5.5197
X7.7087Y-5.7047
X7.7087Y-5.813
X7.7087Y-6.0
T2
X7.7146Y-5.2559
X7.7146Y-5.3346
X7.7146Y-5.5709
X7.7146Y-5.6496
X7.7156Y-5.8661
X7.7156Y-5.9449
T3
X7.8661Y-5.2244
X7.8661Y-5.5394
X7.8661Y-5.8346
X8.063Y-5.2244
X8.063Y-5.5394
X8.063Y-5.8346
T4
X7.8661Y-5.2953
X7.8661Y-5.6102
X7.8661Y-5.9055
X8.063Y-5.2953
X8.063Y-5.6102
X8.063Y-5.9055
T0
M30
