%TF.GenerationSoftware,KiCad,Pcbnew,7.0.7*%
%TF.CreationDate,2024-01-09T18:40:06+08:00*%
%TF.ProjectId,XT302+2 PCB mod,58543330-322b-4322-9050-4342206d6f64,rev?*%
%TF.SameCoordinates,Original*%
%TF.FileFunction,Soldermask,Bot*%
%TF.FilePolarity,Negative*%
%FSLAX46Y46*%
G04 Gerber Fmt 4.6, Leading zero omitted, Abs format (unit mm)*
G04 Created by KiCad (PCBNEW 7.0.7) date 2024-01-09 18:40:06*
%MOMM*%
%LPD*%
G01*
G04 APERTURE LIST*
%ADD10C,0.150000*%
%ADD11C,1.000000*%
%ADD12C,1.400000*%
%ADD13C,0.575000*%
%ADD14C,0.300000*%
%ADD15O,1.350000X1.350000*%
%ADD16R,1.350000X1.350000*%
%ADD17C,0.500000*%
G04 APERTURE END LIST*
D10*
X198900000Y-148200000D02*
X200700000Y-148200000D01*
X200700000Y-149300000D01*
X198900000Y-149300000D01*
X198900000Y-148200000D01*
G36*
X198900000Y-148200000D02*
G01*
X200700000Y-148200000D01*
X200700000Y-149300000D01*
X198900000Y-149300000D01*
X198900000Y-148200000D01*
G37*
D11*
X205300000Y-148200000D02*
G75*
G03*
X205300000Y-148200000I-500000J0D01*
G01*
D12*
X205500000Y-150000000D02*
G75*
G03*
X205500000Y-150000000I-700000J0D01*
G01*
D11*
X200300000Y-148200000D02*
G75*
G03*
X200300000Y-148200000I-500000J0D01*
G01*
D12*
X200500000Y-142500000D02*
G75*
G03*
X200500000Y-142500000I-700000J0D01*
G01*
D10*
X198900000Y-132700000D02*
X200700000Y-132700000D01*
X200700000Y-133800000D01*
X198900000Y-133800000D01*
X198900000Y-132700000D01*
G36*
X198900000Y-132700000D02*
G01*
X200700000Y-132700000D01*
X200700000Y-133800000D01*
X198900000Y-133800000D01*
X198900000Y-132700000D01*
G37*
D11*
X200300000Y-132700000D02*
G75*
G03*
X200300000Y-132700000I-500000J0D01*
G01*
D10*
X203900000Y-132700000D02*
X205700000Y-132700000D01*
X205700000Y-133800000D01*
X203900000Y-133800000D01*
X203900000Y-132700000D01*
G36*
X203900000Y-132700000D02*
G01*
X205700000Y-132700000D01*
X205700000Y-133800000D01*
X203900000Y-133800000D01*
X203900000Y-132700000D01*
G37*
D13*
X196087500Y-147650000D02*
G75*
G03*
X196087500Y-147650000I-287500J0D01*
G01*
X196087500Y-136900000D02*
G75*
G03*
X196087500Y-136900000I-287500J0D01*
G01*
D10*
X198900000Y-140700000D02*
X200700000Y-140700000D01*
X200700000Y-141800000D01*
X198900000Y-141800000D01*
X198900000Y-140700000D01*
G36*
X198900000Y-140700000D02*
G01*
X200700000Y-140700000D01*
X200700000Y-141800000D01*
X198900000Y-141800000D01*
X198900000Y-140700000D01*
G37*
X203900000Y-148200000D02*
X205700000Y-148200000D01*
X205700000Y-149300000D01*
X203900000Y-149300000D01*
X203900000Y-148200000D01*
G36*
X203900000Y-148200000D02*
G01*
X205700000Y-148200000D01*
X205700000Y-149300000D01*
X203900000Y-149300000D01*
X203900000Y-148200000D01*
G37*
D12*
X205500000Y-134500000D02*
G75*
G03*
X205500000Y-134500000I-700000J0D01*
G01*
D10*
X203900000Y-140700000D02*
X205700000Y-140700000D01*
X205700000Y-141800000D01*
X203900000Y-141800000D01*
X203900000Y-140700000D01*
G36*
X203900000Y-140700000D02*
G01*
X205700000Y-140700000D01*
X205700000Y-141800000D01*
X203900000Y-141800000D01*
X203900000Y-140700000D01*
G37*
D12*
X200500000Y-134500000D02*
G75*
G03*
X200500000Y-134500000I-700000J0D01*
G01*
D13*
X196087500Y-144900000D02*
G75*
G03*
X196087500Y-144900000I-287500J0D01*
G01*
D12*
X205500000Y-142500000D02*
G75*
G03*
X205500000Y-142500000I-700000J0D01*
G01*
D11*
X205300000Y-132700000D02*
G75*
G03*
X205300000Y-132700000I-500000J0D01*
G01*
D12*
X200500000Y-150000000D02*
G75*
G03*
X200500000Y-150000000I-700000J0D01*
G01*
D11*
X200300000Y-140700000D02*
G75*
G03*
X200300000Y-140700000I-500000J0D01*
G01*
D13*
X196087500Y-152400000D02*
G75*
G03*
X196087500Y-152400000I-287500J0D01*
G01*
X196087500Y-140200000D02*
G75*
G03*
X196087500Y-140200000I-287500J0D01*
G01*
X196087500Y-132200000D02*
G75*
G03*
X196087500Y-132200000I-287500J0D01*
G01*
D11*
X205300000Y-140700000D02*
G75*
G03*
X205300000Y-140700000I-500000J0D01*
G01*
D14*
G36*
X200081297Y-136946395D02*
G01*
X200081297Y-136688475D01*
X199512700Y-136688475D01*
X199512700Y-136946395D01*
X200081297Y-136946395D01*
G37*
G36*
X204916765Y-137333974D02*
G01*
X204916765Y-136935369D01*
X205312438Y-136935369D01*
X205312438Y-136677449D01*
X204916765Y-136677449D01*
X204916765Y-136278845D01*
X204652983Y-136278845D01*
X204652983Y-136677449D01*
X204256210Y-136677449D01*
X204256210Y-136935369D01*
X204652983Y-136935369D01*
X204652983Y-137333974D01*
X204916765Y-137333974D01*
G37*
G36*
X200081297Y-144946395D02*
G01*
X200081297Y-144688475D01*
X199512700Y-144688475D01*
X199512700Y-144946395D01*
X200081297Y-144946395D01*
G37*
G36*
X204916765Y-145333974D02*
G01*
X204916765Y-144935369D01*
X205312438Y-144935369D01*
X205312438Y-144677449D01*
X204916765Y-144677449D01*
X204916765Y-144278845D01*
X204652983Y-144278845D01*
X204652983Y-144677449D01*
X204256210Y-144677449D01*
X204256210Y-144935369D01*
X204652983Y-144935369D01*
X204652983Y-145333974D01*
X204916765Y-145333974D01*
G37*
G36*
X200081297Y-152446395D02*
G01*
X200081297Y-152188475D01*
X199512700Y-152188475D01*
X199512700Y-152446395D01*
X200081297Y-152446395D01*
G37*
G36*
X204916765Y-152833974D02*
G01*
X204916765Y-152435369D01*
X205312438Y-152435369D01*
X205312438Y-152177449D01*
X204916765Y-152177449D01*
X204916765Y-151778845D01*
X204652983Y-151778845D01*
X204652983Y-152177449D01*
X204256210Y-152177449D01*
X204256210Y-152435369D01*
X204652983Y-152435369D01*
X204652983Y-152833974D01*
X204916765Y-152833974D01*
G37*
D15*
%TO.C,REF\u002A\u002A*%
X195975000Y-151000000D03*
D16*
X195975000Y-149000000D03*
%TD*%
%TO.C,REF\u002A\u002A*%
X195950000Y-141500000D03*
D15*
X195950000Y-143500000D03*
%TD*%
D16*
%TO.C,REF\u002A\u002A*%
X195950000Y-133500000D03*
D15*
X195950000Y-135500000D03*
%TD*%
D17*
%TO.C,REF\u002A\u002A*%
X207599558Y-141020828D03*
%TD*%
%TO.C,REF\u002A\u002A*%
X207599558Y-148520828D03*
%TD*%
%TO.C,REF\u002A\u002A*%
X194600000Y-134500000D03*
%TD*%
%TO.C,REF\u002A\u002A*%
X207599558Y-141815621D03*
%TD*%
%TO.C,REF\u002A\u002A*%
X207599558Y-149315621D03*
%TD*%
%TO.C,REF\u002A\u002A*%
X207599558Y-134610414D03*
%TD*%
%TO.C,REF\u002A\u002A*%
X207599558Y-150905207D03*
%TD*%
%TO.C,REF\u002A\u002A*%
X207599558Y-133020828D03*
%TD*%
%TO.C,REF\u002A\u002A*%
X207599558Y-150110414D03*
%TD*%
%TO.C,REF\u002A\u002A*%
X194700000Y-150900000D03*
%TD*%
%TO.C,REF\u002A\u002A*%
X194700000Y-149100000D03*
%TD*%
%TO.C,REF\u002A\u002A*%
X207599558Y-143405207D03*
%TD*%
%TO.C,REF\u002A\u002A*%
X207599558Y-144200000D03*
%TD*%
%TO.C,REF\u002A\u002A*%
X194700000Y-135400000D03*
%TD*%
%TO.C,REF\u002A\u002A*%
X207599558Y-136200000D03*
%TD*%
%TO.C,REF\u002A\u002A*%
X207599558Y-135405207D03*
%TD*%
%TO.C,REF\u002A\u002A*%
X207599558Y-133815621D03*
%TD*%
%TO.C,REF\u002A\u002A*%
X194700000Y-143400000D03*
%TD*%
%TO.C,REF\u002A\u002A*%
X194700000Y-141600000D03*
%TD*%
%TO.C,REF\u002A\u002A*%
X194600000Y-150000000D03*
%TD*%
%TO.C,REF\u002A\u002A*%
X194700000Y-133600000D03*
%TD*%
%TO.C,REF\u002A\u002A*%
X194600000Y-142500000D03*
%TD*%
%TO.C,REF\u002A\u002A*%
X207599558Y-142610414D03*
%TD*%
%TO.C,REF\u002A\u002A*%
X207599558Y-151700000D03*
%TD*%
M02*
