%TF.GenerationSoftware,KiCad,Pcbnew,7.0.7*%
%TF.CreationDate,2023-12-31T13:21:00+08:00*%
%TF.ProjectId,XT302+2 PCB mod,58543330-322b-4322-9050-4342206d6f64,rev?*%
%TF.SameCoordinates,Original*%
%TF.FileFunction,Copper,L1,Top*%
%TF.FilePolarity,Positive*%
%FSLAX46Y46*%
G04 Gerber Fmt 4.6, Leading zero omitted, Abs format (unit mm)*
G04 Created by KiCad (PCBNEW 7.0.7) date 2023-12-31 13:21:00*
%MOMM*%
%LPD*%
G01*
G04 APERTURE LIST*
G04 Aperture macros list*
%AMRoundRect*
0 Rectangle with rounded corners*
0 $1 Rounding radius*
0 $2 $3 $4 $5 $6 $7 $8 $9 X,Y pos of 4 corners*
0 Add a 4 corners polygon primitive as box body*
4,1,4,$2,$3,$4,$5,$6,$7,$8,$9,$2,$3,0*
0 Add four circle primitives for the rounded corners*
1,1,$1+$1,$2,$3*
1,1,$1+$1,$4,$5*
1,1,$1+$1,$6,$7*
1,1,$1+$1,$8,$9*
0 Add four rect primitives between the rounded corners*
20,1,$1+$1,$2,$3,$4,$5,0*
20,1,$1+$1,$4,$5,$6,$7,0*
20,1,$1+$1,$6,$7,$8,$9,0*
20,1,$1+$1,$8,$9,$2,$3,0*%
G04 Aperture macros list end*
%TA.AperFunction,ComponentPad*%
%ADD10RoundRect,0.225000X0.475000X-0.225000X0.475000X0.225000X-0.475000X0.225000X-0.475000X-0.225000X0*%
%TD*%
%TA.AperFunction,ComponentPad*%
%ADD11O,1.400000X0.900000*%
%TD*%
%TA.AperFunction,ViaPad*%
%ADD12C,3.000000*%
%TD*%
%TA.AperFunction,ViaPad*%
%ADD13C,2.400000*%
%TD*%
%TA.AperFunction,ViaPad*%
%ADD14C,1.000000*%
%TD*%
%TA.AperFunction,Conductor*%
%ADD15C,2.400000*%
%TD*%
G04 APERTURE END LIST*
D10*
%TO.P,the 2plus2,1*%
%TO.N,g*%
X195950000Y-150600000D03*
D11*
%TO.P,the 2plus2,T0*%
%TO.N,T0*%
X195950000Y-149350000D03*
%TD*%
D10*
%TO.P,the 2plus2,1*%
%TO.N,g*%
X195950000Y-143100000D03*
D11*
%TO.P,the 2plus2,T0*%
%TO.N,T0*%
X195950000Y-141850000D03*
%TD*%
D10*
%TO.P,the 2plus2,1*%
%TO.N,g*%
X195950000Y-135100000D03*
D11*
%TO.P,the 2plus2,T0*%
%TO.N,T0*%
X195950000Y-133850000D03*
%TD*%
D12*
%TO.N,VIN*%
X204800000Y-150000000D03*
%TO.N,HE-*%
X199800000Y-150000000D03*
D13*
X199800000Y-148200000D03*
D14*
%TO.N,g*%
X195800000Y-152100000D03*
%TO.N,T0*%
X195800000Y-147900000D03*
D13*
%TO.N,VIN*%
X204800000Y-148200000D03*
D12*
X204800000Y-142500000D03*
D13*
X204800000Y-140700000D03*
%TO.N,HE-*%
X199800000Y-140700000D03*
D12*
X199800000Y-142500000D03*
D14*
%TO.N,g*%
X195800000Y-144600000D03*
%TO.N,T0*%
X195800000Y-140400000D03*
X195800000Y-132400000D03*
%TO.N,g*%
X195800000Y-136600000D03*
D12*
%TO.N,HE-*%
X199800000Y-134500000D03*
D13*
X199800000Y-132700000D03*
%TO.N,VIN*%
X204800000Y-132700000D03*
D12*
X204800000Y-134500000D03*
%TD*%
D15*
%TO.N,VIN*%
X204800000Y-148200000D02*
X204800000Y-150000000D01*
X204800000Y-140700000D02*
X204800000Y-142500000D01*
X204800000Y-132700000D02*
X204800000Y-134500000D01*
%TD*%
%TA.AperFunction,Conductor*%
%TO.N,HE-*%
G36*
X203391097Y-131520185D02*
G01*
X203436852Y-131572989D01*
X203446796Y-131642147D01*
X203421007Y-131701811D01*
X203391038Y-131739391D01*
X203366730Y-131781493D01*
X203363748Y-131786163D01*
X203334002Y-131828454D01*
X203301052Y-131895000D01*
X203299184Y-131898488D01*
X203263606Y-131960113D01*
X203244675Y-132008348D01*
X203242523Y-132013207D01*
X203218143Y-132062447D01*
X203218135Y-132062468D01*
X203196703Y-132130186D01*
X203195307Y-132134129D01*
X203170494Y-132197355D01*
X203170493Y-132197358D01*
X203158240Y-132251036D01*
X203156906Y-132255945D01*
X203139360Y-132311388D01*
X203139357Y-132311402D01*
X203129003Y-132378429D01*
X203128175Y-132382760D01*
X203113780Y-132445829D01*
X203113778Y-132445840D01*
X203109422Y-132503948D01*
X203108869Y-132508777D01*
X203099500Y-132569440D01*
X203099499Y-132569451D01*
X203099499Y-132634058D01*
X203099326Y-132638691D01*
X203095504Y-132689701D01*
X203094732Y-132700000D01*
X203099327Y-132761326D01*
X203099500Y-132765941D01*
X203099500Y-133408344D01*
X203084332Y-133467771D01*
X202975635Y-133666833D01*
X202875628Y-133934962D01*
X202814804Y-134214566D01*
X202794390Y-134499998D01*
X202794390Y-134500001D01*
X202814804Y-134785433D01*
X202875628Y-135065037D01*
X202875630Y-135065043D01*
X202875631Y-135065046D01*
X202924159Y-135195154D01*
X202975635Y-135333166D01*
X203112770Y-135584309D01*
X203112775Y-135584317D01*
X203284254Y-135813387D01*
X203284270Y-135813405D01*
X203486594Y-136015729D01*
X203486612Y-136015745D01*
X203715682Y-136187224D01*
X203715690Y-136187229D01*
X203966833Y-136324364D01*
X203966832Y-136324364D01*
X203966836Y-136324365D01*
X203966839Y-136324367D01*
X204234954Y-136424369D01*
X204234960Y-136424370D01*
X204234962Y-136424371D01*
X204514566Y-136485195D01*
X204514568Y-136485195D01*
X204514572Y-136485196D01*
X204768220Y-136503337D01*
X204799999Y-136505610D01*
X204800000Y-136505610D01*
X204800001Y-136505610D01*
X204828595Y-136503564D01*
X205085428Y-136485196D01*
X205365046Y-136424369D01*
X205633161Y-136324367D01*
X205884315Y-136187226D01*
X206113395Y-136015739D01*
X206315739Y-135813395D01*
X206487226Y-135584315D01*
X206624367Y-135333161D01*
X206724369Y-135065046D01*
X206785196Y-134785428D01*
X206805610Y-134500000D01*
X206785196Y-134214572D01*
X206770274Y-134145978D01*
X206724371Y-133934962D01*
X206724370Y-133934960D01*
X206724369Y-133934954D01*
X206624367Y-133666839D01*
X206590912Y-133605570D01*
X206515668Y-133467771D01*
X206500500Y-133408344D01*
X206500500Y-132765941D01*
X206500672Y-132761326D01*
X206505268Y-132700000D01*
X206500620Y-132637976D01*
X206500500Y-132634841D01*
X206500500Y-132634823D01*
X206495643Y-132571563D01*
X206486222Y-132445843D01*
X206486218Y-132445828D01*
X206486092Y-132444985D01*
X206485577Y-132440459D01*
X206485516Y-132439656D01*
X206456855Y-132317180D01*
X206429508Y-132197363D01*
X206429505Y-132197355D01*
X206428140Y-132192927D01*
X206428424Y-132192839D01*
X206427515Y-132189922D01*
X206427454Y-132189942D01*
X206426020Y-132185410D01*
X206380120Y-132071527D01*
X206336392Y-131960110D01*
X206334681Y-131957147D01*
X206330859Y-131949301D01*
X206328413Y-131943232D01*
X206267250Y-131840353D01*
X206233268Y-131781493D01*
X206208959Y-131739388D01*
X206204795Y-131734166D01*
X206199984Y-131727206D01*
X206194982Y-131718792D01*
X206182283Y-131703394D01*
X206154817Y-131639150D01*
X206166443Y-131570255D01*
X206213471Y-131518582D01*
X206277948Y-131500500D01*
X207375500Y-131500500D01*
X207442539Y-131520185D01*
X207488294Y-131572989D01*
X207499500Y-131624500D01*
X207499500Y-132436610D01*
X207479815Y-132503649D01*
X207427012Y-132549404D01*
X207326186Y-132595450D01*
X207326184Y-132595451D01*
X207217414Y-132689701D01*
X207139603Y-132810777D01*
X207099058Y-132948864D01*
X207099058Y-133092791D01*
X207139603Y-133230878D01*
X207216919Y-133351185D01*
X207236603Y-133418225D01*
X207216919Y-133485263D01*
X207139603Y-133605570D01*
X207099058Y-133743657D01*
X207099058Y-133887584D01*
X207139603Y-134025671D01*
X207216919Y-134145978D01*
X207236603Y-134213018D01*
X207216919Y-134280056D01*
X207139603Y-134400363D01*
X207099058Y-134538450D01*
X207099058Y-134682377D01*
X207139603Y-134820464D01*
X207216919Y-134940771D01*
X207236603Y-135007811D01*
X207216919Y-135074849D01*
X207139603Y-135195156D01*
X207099058Y-135333243D01*
X207099058Y-135477170D01*
X207139603Y-135615257D01*
X207216919Y-135735564D01*
X207236603Y-135802604D01*
X207216919Y-135869642D01*
X207139603Y-135989949D01*
X207099058Y-136128036D01*
X207099058Y-136271963D01*
X207139603Y-136410050D01*
X207139605Y-136410053D01*
X207217415Y-136531128D01*
X207326184Y-136625376D01*
X207326188Y-136625379D01*
X207427011Y-136671423D01*
X207479815Y-136717177D01*
X207499500Y-136784217D01*
X207499500Y-137376000D01*
X207479815Y-137443039D01*
X207427011Y-137488794D01*
X207375500Y-137500000D01*
X197624000Y-137500000D01*
X197556961Y-137480315D01*
X197511206Y-137427511D01*
X197500000Y-137376000D01*
X197500000Y-131624500D01*
X197519685Y-131557461D01*
X197572489Y-131511706D01*
X197624000Y-131500500D01*
X203324058Y-131500500D01*
X203391097Y-131520185D01*
G37*
%TD.AperFunction*%
%TD*%
%TA.AperFunction,Conductor*%
%TO.N,T0*%
G36*
X196943039Y-131520185D02*
G01*
X196988794Y-131572989D01*
X197000000Y-131624500D01*
X197000000Y-134170500D01*
X196980315Y-134237539D01*
X196927511Y-134283294D01*
X196876000Y-134294500D01*
X196245562Y-134294500D01*
X196242339Y-134294601D01*
X196239115Y-134294702D01*
X196236314Y-134294878D01*
X196232427Y-134295000D01*
X195626309Y-134295000D01*
X195622421Y-134294878D01*
X195619634Y-134294703D01*
X195618021Y-134294652D01*
X195613188Y-134294500D01*
X195613185Y-134294500D01*
X195210787Y-134294500D01*
X195203455Y-134294762D01*
X195182147Y-134296285D01*
X195167304Y-134300073D01*
X195097479Y-134297576D01*
X195040089Y-134257725D01*
X195032328Y-134246962D01*
X195026272Y-134237539D01*
X194982143Y-134168872D01*
X194982142Y-134168871D01*
X194977862Y-134162211D01*
X194958178Y-134095172D01*
X194977863Y-134028132D01*
X195000976Y-134001459D01*
X195082143Y-133931128D01*
X195159953Y-133810053D01*
X195200500Y-133671961D01*
X195200500Y-133528039D01*
X195200500Y-133528037D01*
X195200499Y-133528036D01*
X195159954Y-133389949D01*
X195159953Y-133389947D01*
X195082143Y-133268872D01*
X194973373Y-133174623D01*
X194973368Y-133174620D01*
X194972976Y-133174441D01*
X194972650Y-133174158D01*
X194965913Y-133169829D01*
X194966536Y-133168859D01*
X194920177Y-133128680D01*
X194900500Y-133061652D01*
X194900500Y-131624500D01*
X194920185Y-131557461D01*
X194972989Y-131511706D01*
X195024500Y-131500500D01*
X196876000Y-131500500D01*
X196943039Y-131520185D01*
G37*
%TD.AperFunction*%
%TD*%
%TA.AperFunction,Conductor*%
%TO.N,g*%
G36*
X195617737Y-134500489D02*
G01*
X195617822Y-134500499D01*
X195617823Y-134500500D01*
X195617824Y-134500500D01*
X196240922Y-134500500D01*
X196240925Y-134500500D01*
X196241006Y-134500489D01*
X196248787Y-134500000D01*
X196876000Y-134500000D01*
X196943039Y-134519685D01*
X196988794Y-134572489D01*
X197000000Y-134624000D01*
X197000000Y-137376000D01*
X196980315Y-137443039D01*
X196927511Y-137488794D01*
X196876000Y-137500000D01*
X195024500Y-137500000D01*
X194957461Y-137480315D01*
X194911706Y-137427511D01*
X194900500Y-137376000D01*
X194900500Y-135938346D01*
X194920185Y-135871307D01*
X194966537Y-135831142D01*
X194965913Y-135830171D01*
X194972669Y-135825829D01*
X194972988Y-135825552D01*
X194973373Y-135825377D01*
X195082143Y-135731128D01*
X195159953Y-135610053D01*
X195200500Y-135471961D01*
X195200500Y-135328039D01*
X195200500Y-135328038D01*
X195200500Y-135328037D01*
X195200499Y-135328036D01*
X195159954Y-135189949D01*
X195159953Y-135189947D01*
X195082143Y-135068872D01*
X195000975Y-134998540D01*
X194963201Y-134939762D01*
X194963201Y-134869892D01*
X194977863Y-134837787D01*
X194982141Y-134831129D01*
X194982143Y-134831128D01*
X195059953Y-134710053D01*
X195095478Y-134589066D01*
X195133252Y-134530287D01*
X195196807Y-134501262D01*
X195214455Y-134500000D01*
X195609959Y-134500000D01*
X195617737Y-134500489D01*
G37*
%TD.AperFunction*%
%TD*%
%TA.AperFunction,Conductor*%
%TO.N,T0*%
G36*
X196943039Y-139520185D02*
G01*
X196988794Y-139572989D01*
X197000000Y-139624500D01*
X197000000Y-142170500D01*
X196980315Y-142237539D01*
X196927511Y-142283294D01*
X196876000Y-142294500D01*
X196245562Y-142294500D01*
X196242339Y-142294601D01*
X196239115Y-142294702D01*
X196236314Y-142294878D01*
X196232427Y-142295000D01*
X195626309Y-142295000D01*
X195622421Y-142294878D01*
X195619634Y-142294703D01*
X195618021Y-142294652D01*
X195613188Y-142294500D01*
X195613185Y-142294500D01*
X195210787Y-142294500D01*
X195203455Y-142294762D01*
X195182147Y-142296285D01*
X195167304Y-142300073D01*
X195097479Y-142297576D01*
X195040089Y-142257725D01*
X195032328Y-142246962D01*
X195026272Y-142237539D01*
X194982143Y-142168872D01*
X194982142Y-142168871D01*
X194977862Y-142162211D01*
X194958178Y-142095172D01*
X194977863Y-142028132D01*
X195000976Y-142001459D01*
X195082143Y-141931128D01*
X195159953Y-141810053D01*
X195200500Y-141671961D01*
X195200500Y-141528039D01*
X195200500Y-141528037D01*
X195200499Y-141528036D01*
X195159954Y-141389949D01*
X195159953Y-141389947D01*
X195082143Y-141268872D01*
X194973373Y-141174623D01*
X194973368Y-141174620D01*
X194972976Y-141174441D01*
X194972650Y-141174158D01*
X194965913Y-141169829D01*
X194966536Y-141168859D01*
X194920177Y-141128680D01*
X194900500Y-141061652D01*
X194900500Y-139624500D01*
X194920185Y-139557461D01*
X194972989Y-139511706D01*
X195024500Y-139500500D01*
X196876000Y-139500500D01*
X196943039Y-139520185D01*
G37*
%TD.AperFunction*%
%TD*%
%TA.AperFunction,Conductor*%
%TO.N,g*%
G36*
X195617737Y-142500489D02*
G01*
X195617822Y-142500499D01*
X195617823Y-142500500D01*
X195617824Y-142500500D01*
X196240922Y-142500500D01*
X196240925Y-142500500D01*
X196241006Y-142500489D01*
X196248787Y-142500000D01*
X196876000Y-142500000D01*
X196943039Y-142519685D01*
X196988794Y-142572489D01*
X197000000Y-142624000D01*
X197000000Y-145376000D01*
X196980315Y-145443039D01*
X196927511Y-145488794D01*
X196876000Y-145500000D01*
X195024500Y-145500000D01*
X194957461Y-145480315D01*
X194911706Y-145427511D01*
X194900500Y-145376000D01*
X194900500Y-143938346D01*
X194920185Y-143871307D01*
X194966537Y-143831142D01*
X194965913Y-143830171D01*
X194972669Y-143825829D01*
X194972988Y-143825552D01*
X194973373Y-143825377D01*
X195082143Y-143731128D01*
X195159953Y-143610053D01*
X195200500Y-143471961D01*
X195200500Y-143328039D01*
X195200500Y-143328038D01*
X195200500Y-143328037D01*
X195200499Y-143328036D01*
X195159954Y-143189949D01*
X195159953Y-143189947D01*
X195082143Y-143068872D01*
X195000975Y-142998540D01*
X194963201Y-142939762D01*
X194963201Y-142869892D01*
X194977863Y-142837787D01*
X194982141Y-142831129D01*
X194982143Y-142831128D01*
X195059953Y-142710053D01*
X195095478Y-142589066D01*
X195133252Y-142530287D01*
X195196807Y-142501262D01*
X195214455Y-142500000D01*
X195609959Y-142500000D01*
X195617737Y-142500489D01*
G37*
%TD.AperFunction*%
%TD*%
%TA.AperFunction,Conductor*%
%TO.N,HE-*%
G36*
X203391097Y-139520185D02*
G01*
X203436852Y-139572989D01*
X203446796Y-139642147D01*
X203421007Y-139701811D01*
X203391038Y-139739391D01*
X203366730Y-139781493D01*
X203363748Y-139786163D01*
X203334002Y-139828454D01*
X203301052Y-139895000D01*
X203299184Y-139898488D01*
X203263606Y-139960113D01*
X203244675Y-140008348D01*
X203242523Y-140013207D01*
X203218143Y-140062447D01*
X203218135Y-140062468D01*
X203196703Y-140130186D01*
X203195307Y-140134129D01*
X203170494Y-140197355D01*
X203170493Y-140197358D01*
X203158240Y-140251036D01*
X203156906Y-140255945D01*
X203139360Y-140311388D01*
X203139357Y-140311402D01*
X203129003Y-140378429D01*
X203128175Y-140382760D01*
X203113780Y-140445829D01*
X203113778Y-140445840D01*
X203109422Y-140503948D01*
X203108869Y-140508777D01*
X203099500Y-140569440D01*
X203099499Y-140569451D01*
X203099499Y-140634058D01*
X203099326Y-140638691D01*
X203095504Y-140689701D01*
X203094732Y-140700000D01*
X203099327Y-140761326D01*
X203099500Y-140765941D01*
X203099500Y-141408344D01*
X203084332Y-141467771D01*
X202975635Y-141666833D01*
X202875628Y-141934962D01*
X202814804Y-142214566D01*
X202794390Y-142499998D01*
X202794390Y-142500001D01*
X202814804Y-142785433D01*
X202875628Y-143065037D01*
X202875630Y-143065043D01*
X202875631Y-143065046D01*
X202924159Y-143195154D01*
X202975635Y-143333166D01*
X203112770Y-143584309D01*
X203112775Y-143584317D01*
X203284254Y-143813387D01*
X203284270Y-143813405D01*
X203486594Y-144015729D01*
X203486612Y-144015745D01*
X203715682Y-144187224D01*
X203715690Y-144187229D01*
X203966833Y-144324364D01*
X203966832Y-144324364D01*
X203966836Y-144324365D01*
X203966839Y-144324367D01*
X204234954Y-144424369D01*
X204234960Y-144424370D01*
X204234962Y-144424371D01*
X204514566Y-144485195D01*
X204514568Y-144485195D01*
X204514572Y-144485196D01*
X204768220Y-144503337D01*
X204799999Y-144505610D01*
X204800000Y-144505610D01*
X204800001Y-144505610D01*
X204828595Y-144503564D01*
X205085428Y-144485196D01*
X205365046Y-144424369D01*
X205633161Y-144324367D01*
X205884315Y-144187226D01*
X206113395Y-144015739D01*
X206315739Y-143813395D01*
X206487226Y-143584315D01*
X206624367Y-143333161D01*
X206724369Y-143065046D01*
X206785196Y-142785428D01*
X206805610Y-142500000D01*
X206785196Y-142214572D01*
X206770274Y-142145978D01*
X206724371Y-141934962D01*
X206724370Y-141934960D01*
X206724369Y-141934954D01*
X206624367Y-141666839D01*
X206590912Y-141605570D01*
X206515668Y-141467771D01*
X206500500Y-141408344D01*
X206500500Y-140765941D01*
X206500672Y-140761326D01*
X206505268Y-140700000D01*
X206500620Y-140637976D01*
X206500500Y-140634841D01*
X206500500Y-140634823D01*
X206495643Y-140571563D01*
X206486222Y-140445843D01*
X206486218Y-140445828D01*
X206486092Y-140444985D01*
X206485577Y-140440459D01*
X206485516Y-140439656D01*
X206456855Y-140317180D01*
X206429508Y-140197363D01*
X206429505Y-140197355D01*
X206428140Y-140192927D01*
X206428424Y-140192839D01*
X206427515Y-140189922D01*
X206427454Y-140189942D01*
X206426020Y-140185410D01*
X206380120Y-140071527D01*
X206336392Y-139960110D01*
X206334681Y-139957147D01*
X206330859Y-139949301D01*
X206328413Y-139943232D01*
X206267250Y-139840353D01*
X206233268Y-139781493D01*
X206208959Y-139739388D01*
X206204795Y-139734166D01*
X206199984Y-139727206D01*
X206194982Y-139718792D01*
X206182283Y-139703394D01*
X206154817Y-139639150D01*
X206166443Y-139570255D01*
X206213471Y-139518582D01*
X206277948Y-139500500D01*
X207375500Y-139500500D01*
X207442539Y-139520185D01*
X207488294Y-139572989D01*
X207499500Y-139624500D01*
X207499500Y-140436610D01*
X207479815Y-140503649D01*
X207427012Y-140549404D01*
X207326186Y-140595450D01*
X207326184Y-140595451D01*
X207217414Y-140689701D01*
X207139603Y-140810777D01*
X207099058Y-140948864D01*
X207099058Y-141092791D01*
X207139603Y-141230878D01*
X207216919Y-141351185D01*
X207236603Y-141418225D01*
X207216919Y-141485263D01*
X207139603Y-141605570D01*
X207099058Y-141743657D01*
X207099058Y-141887584D01*
X207139603Y-142025671D01*
X207216919Y-142145978D01*
X207236603Y-142213018D01*
X207216919Y-142280056D01*
X207139603Y-142400363D01*
X207099058Y-142538450D01*
X207099058Y-142682377D01*
X207139603Y-142820464D01*
X207216919Y-142940771D01*
X207236603Y-143007811D01*
X207216919Y-143074849D01*
X207139603Y-143195156D01*
X207099058Y-143333243D01*
X207099058Y-143477170D01*
X207139603Y-143615257D01*
X207216919Y-143735564D01*
X207236603Y-143802604D01*
X207216919Y-143869642D01*
X207139603Y-143989949D01*
X207099058Y-144128036D01*
X207099058Y-144271963D01*
X207139603Y-144410050D01*
X207139605Y-144410053D01*
X207217415Y-144531128D01*
X207326184Y-144625376D01*
X207326188Y-144625379D01*
X207427011Y-144671423D01*
X207479815Y-144717177D01*
X207499500Y-144784217D01*
X207499500Y-145376000D01*
X207479815Y-145443039D01*
X207427011Y-145488794D01*
X207375500Y-145500000D01*
X197624000Y-145500000D01*
X197556961Y-145480315D01*
X197511206Y-145427511D01*
X197500000Y-145376000D01*
X197500000Y-139624500D01*
X197519685Y-139557461D01*
X197572489Y-139511706D01*
X197624000Y-139500500D01*
X203324058Y-139500500D01*
X203391097Y-139520185D01*
G37*
%TD.AperFunction*%
%TD*%
%TA.AperFunction,Conductor*%
%TO.N,T0*%
G36*
X196943039Y-147020185D02*
G01*
X196988794Y-147072989D01*
X197000000Y-147124500D01*
X197000000Y-149670500D01*
X196980315Y-149737539D01*
X196927511Y-149783294D01*
X196876000Y-149794500D01*
X196245562Y-149794500D01*
X196242339Y-149794601D01*
X196239115Y-149794702D01*
X196236314Y-149794878D01*
X196232427Y-149795000D01*
X195626309Y-149795000D01*
X195622421Y-149794878D01*
X195619634Y-149794703D01*
X195618021Y-149794652D01*
X195613188Y-149794500D01*
X195613185Y-149794500D01*
X195210787Y-149794500D01*
X195203455Y-149794762D01*
X195182147Y-149796285D01*
X195167304Y-149800073D01*
X195097479Y-149797576D01*
X195040089Y-149757725D01*
X195032328Y-149746962D01*
X195026272Y-149737539D01*
X194982143Y-149668872D01*
X194982142Y-149668871D01*
X194977862Y-149662211D01*
X194958178Y-149595172D01*
X194977863Y-149528132D01*
X195000976Y-149501459D01*
X195082143Y-149431128D01*
X195159953Y-149310053D01*
X195200500Y-149171961D01*
X195200500Y-149028039D01*
X195200500Y-149028037D01*
X195200499Y-149028036D01*
X195159954Y-148889949D01*
X195159953Y-148889947D01*
X195082143Y-148768872D01*
X194973373Y-148674623D01*
X194973368Y-148674620D01*
X194972976Y-148674441D01*
X194972650Y-148674158D01*
X194965913Y-148669829D01*
X194966536Y-148668859D01*
X194920177Y-148628680D01*
X194900500Y-148561652D01*
X194900500Y-147124500D01*
X194920185Y-147057461D01*
X194972989Y-147011706D01*
X195024500Y-147000500D01*
X196876000Y-147000500D01*
X196943039Y-147020185D01*
G37*
%TD.AperFunction*%
%TD*%
%TA.AperFunction,Conductor*%
%TO.N,g*%
G36*
X195617737Y-150000489D02*
G01*
X195617822Y-150000499D01*
X195617823Y-150000500D01*
X195617824Y-150000500D01*
X196240922Y-150000500D01*
X196240925Y-150000500D01*
X196241006Y-150000489D01*
X196248787Y-150000000D01*
X196876000Y-150000000D01*
X196943039Y-150019685D01*
X196988794Y-150072489D01*
X197000000Y-150124000D01*
X197000000Y-152876000D01*
X196980315Y-152943039D01*
X196927511Y-152988794D01*
X196876000Y-153000000D01*
X195024500Y-153000000D01*
X194957461Y-152980315D01*
X194911706Y-152927511D01*
X194900500Y-152876000D01*
X194900500Y-151438346D01*
X194920185Y-151371307D01*
X194966537Y-151331142D01*
X194965913Y-151330171D01*
X194972669Y-151325829D01*
X194972988Y-151325552D01*
X194973373Y-151325377D01*
X195082143Y-151231128D01*
X195159953Y-151110053D01*
X195200500Y-150971961D01*
X195200500Y-150828039D01*
X195200500Y-150828037D01*
X195200499Y-150828036D01*
X195159954Y-150689949D01*
X195159953Y-150689947D01*
X195082143Y-150568872D01*
X195000975Y-150498540D01*
X194963201Y-150439762D01*
X194963201Y-150369892D01*
X194977863Y-150337787D01*
X194982141Y-150331129D01*
X194982143Y-150331128D01*
X195059953Y-150210053D01*
X195095478Y-150089066D01*
X195133252Y-150030287D01*
X195196807Y-150001262D01*
X195214455Y-150000000D01*
X195609959Y-150000000D01*
X195617737Y-150000489D01*
G37*
%TD.AperFunction*%
%TD*%
%TA.AperFunction,Conductor*%
%TO.N,HE-*%
G36*
X203391097Y-147020185D02*
G01*
X203436852Y-147072989D01*
X203446796Y-147142147D01*
X203421007Y-147201811D01*
X203391038Y-147239391D01*
X203366730Y-147281493D01*
X203363748Y-147286163D01*
X203334002Y-147328454D01*
X203301052Y-147395000D01*
X203299184Y-147398488D01*
X203263606Y-147460113D01*
X203244675Y-147508348D01*
X203242523Y-147513207D01*
X203218143Y-147562447D01*
X203218135Y-147562468D01*
X203196703Y-147630186D01*
X203195307Y-147634129D01*
X203170494Y-147697355D01*
X203170493Y-147697358D01*
X203158240Y-147751036D01*
X203156906Y-147755945D01*
X203139360Y-147811388D01*
X203139357Y-147811402D01*
X203129003Y-147878429D01*
X203128175Y-147882760D01*
X203113780Y-147945829D01*
X203113778Y-147945840D01*
X203109422Y-148003948D01*
X203108869Y-148008777D01*
X203099500Y-148069440D01*
X203099499Y-148069451D01*
X203099499Y-148134058D01*
X203099326Y-148138691D01*
X203095504Y-148189701D01*
X203094732Y-148200000D01*
X203099327Y-148261326D01*
X203099500Y-148265941D01*
X203099500Y-148908344D01*
X203084332Y-148967771D01*
X202975635Y-149166833D01*
X202875628Y-149434962D01*
X202814804Y-149714566D01*
X202794390Y-149999998D01*
X202794390Y-150000001D01*
X202814804Y-150285433D01*
X202875628Y-150565037D01*
X202875630Y-150565043D01*
X202875631Y-150565046D01*
X202952760Y-150771835D01*
X202975635Y-150833166D01*
X203112770Y-151084309D01*
X203112775Y-151084317D01*
X203284254Y-151313387D01*
X203284270Y-151313405D01*
X203486594Y-151515729D01*
X203486612Y-151515745D01*
X203715682Y-151687224D01*
X203715690Y-151687229D01*
X203966833Y-151824364D01*
X203966832Y-151824364D01*
X203966836Y-151824365D01*
X203966839Y-151824367D01*
X204234954Y-151924369D01*
X204234960Y-151924370D01*
X204234962Y-151924371D01*
X204514566Y-151985195D01*
X204514568Y-151985195D01*
X204514572Y-151985196D01*
X204768220Y-152003337D01*
X204799999Y-152005610D01*
X204800000Y-152005610D01*
X204800001Y-152005610D01*
X204828595Y-152003564D01*
X205085428Y-151985196D01*
X205365046Y-151924369D01*
X205633161Y-151824367D01*
X205884315Y-151687226D01*
X206113395Y-151515739D01*
X206315739Y-151313395D01*
X206487226Y-151084315D01*
X206624367Y-150833161D01*
X206724369Y-150565046D01*
X206785196Y-150285428D01*
X206805610Y-150000000D01*
X206785196Y-149714572D01*
X206770274Y-149645978D01*
X206724371Y-149434962D01*
X206724370Y-149434960D01*
X206724369Y-149434954D01*
X206624367Y-149166839D01*
X206590912Y-149105570D01*
X206515668Y-148967771D01*
X206500500Y-148908344D01*
X206500500Y-148265941D01*
X206500672Y-148261326D01*
X206505268Y-148200000D01*
X206500620Y-148137976D01*
X206500500Y-148134841D01*
X206500500Y-148134823D01*
X206495643Y-148071563D01*
X206486222Y-147945843D01*
X206486218Y-147945828D01*
X206486092Y-147944985D01*
X206485577Y-147940459D01*
X206485516Y-147939656D01*
X206456855Y-147817180D01*
X206429508Y-147697363D01*
X206429505Y-147697355D01*
X206428140Y-147692927D01*
X206428424Y-147692839D01*
X206427515Y-147689922D01*
X206427454Y-147689942D01*
X206426020Y-147685410D01*
X206380120Y-147571527D01*
X206336392Y-147460110D01*
X206334681Y-147457147D01*
X206330859Y-147449301D01*
X206328413Y-147443232D01*
X206267250Y-147340353D01*
X206233268Y-147281493D01*
X206208959Y-147239388D01*
X206204795Y-147234166D01*
X206199984Y-147227206D01*
X206194982Y-147218792D01*
X206182283Y-147203394D01*
X206154817Y-147139150D01*
X206166443Y-147070255D01*
X206213471Y-147018582D01*
X206277948Y-147000500D01*
X207375500Y-147000500D01*
X207442539Y-147020185D01*
X207488294Y-147072989D01*
X207499500Y-147124500D01*
X207499500Y-147936610D01*
X207479815Y-148003649D01*
X207427012Y-148049404D01*
X207326186Y-148095450D01*
X207326184Y-148095451D01*
X207217414Y-148189701D01*
X207139603Y-148310777D01*
X207099058Y-148448864D01*
X207099058Y-148592791D01*
X207139603Y-148730878D01*
X207216919Y-148851185D01*
X207236603Y-148918225D01*
X207216919Y-148985263D01*
X207139603Y-149105570D01*
X207099058Y-149243657D01*
X207099058Y-149387584D01*
X207139603Y-149525671D01*
X207216919Y-149645978D01*
X207236603Y-149713018D01*
X207216919Y-149780056D01*
X207139603Y-149900363D01*
X207099058Y-150038450D01*
X207099058Y-150182377D01*
X207139603Y-150320464D01*
X207216919Y-150440771D01*
X207236603Y-150507811D01*
X207216919Y-150574849D01*
X207139603Y-150695156D01*
X207099058Y-150833243D01*
X207099058Y-150977170D01*
X207139603Y-151115257D01*
X207216919Y-151235564D01*
X207236603Y-151302604D01*
X207216919Y-151369642D01*
X207139603Y-151489949D01*
X207099058Y-151628036D01*
X207099058Y-151771963D01*
X207139603Y-151910050D01*
X207139605Y-151910053D01*
X207217415Y-152031128D01*
X207326184Y-152125376D01*
X207326188Y-152125379D01*
X207427011Y-152171423D01*
X207479815Y-152217177D01*
X207499500Y-152284217D01*
X207499500Y-152876000D01*
X207479815Y-152943039D01*
X207427011Y-152988794D01*
X207375500Y-153000000D01*
X197629500Y-153000000D01*
X197562461Y-152980315D01*
X197516706Y-152927511D01*
X197505500Y-152876000D01*
X197505500Y-150124009D01*
X197505500Y-150124000D01*
X197500355Y-150076145D01*
X197500000Y-150069513D01*
X197500000Y-147124500D01*
X197519685Y-147057461D01*
X197572489Y-147011706D01*
X197624000Y-147000500D01*
X203324058Y-147000500D01*
X203391097Y-147020185D01*
G37*
%TD.AperFunction*%
%TD*%
M02*
