M48
; DRILL file {KiCad 7.0.7} date 2023 December 31, Sunday 13:20:58
; FORMAT={-:-/ absolute / inch / decimal}
; #@! TF.CreationDate,2023-12-31T13:20:58+08:00
; #@! TF.GenerationSoftware,Kicad,Pcbnew,7.0.7
; #@! TF.FileFunction,NonPlated,1,2,NPTH
FMAT,2
INCH
; #@! TA.AperFunction,NonPlated,NPTH,ComponentDrill
T1C0.0197
%
G90
G05
T1
X7.6614Y-5.2953
X7.6614Y-5.6102
X7.6614Y-5.9055
X7.6654Y-5.2598
X7.6654Y-5.3307
X7.6654Y-5.5748
X7.6654Y-5.6457
X7.6654Y-5.8701
X7.6654Y-5.9409
X8.1732Y-5.237
X8.1732Y-5.2683
X8.1732Y-5.2996
X8.1732Y-5.3309
X8.1732Y-5.3622
X8.1732Y-5.552
X8.1732Y-5.5833
X8.1732Y-5.6146
X8.1732Y-5.6459
X8.1732Y-5.6772
X8.1732Y-5.8473
X8.1732Y-5.8786
X8.1732Y-5.9099
X8.1732Y-5.9411
X8.1732Y-5.9724
T0
M30
