%TF.GenerationSoftware,KiCad,Pcbnew,7.0.7*%
%TF.CreationDate,2023-12-31T13:21:00+08:00*%
%TF.ProjectId,XT302+2 PCB mod,58543330-322b-4322-9050-4342206d6f64,rev?*%
%TF.SameCoordinates,Original*%
%TF.FileFunction,Soldermask,Top*%
%TF.FilePolarity,Negative*%
%FSLAX46Y46*%
G04 Gerber Fmt 4.6, Leading zero omitted, Abs format (unit mm)*
G04 Created by KiCad (PCBNEW 7.0.7) date 2023-12-31 13:21:00*
%MOMM*%
%LPD*%
G01*
G04 APERTURE LIST*
G04 Aperture macros list*
%AMRoundRect*
0 Rectangle with rounded corners*
0 $1 Rounding radius*
0 $2 $3 $4 $5 $6 $7 $8 $9 X,Y pos of 4 corners*
0 Add a 4 corners polygon primitive as box body*
4,1,4,$2,$3,$4,$5,$6,$7,$8,$9,$2,$3,0*
0 Add four circle primitives for the rounded corners*
1,1,$1+$1,$2,$3*
1,1,$1+$1,$4,$5*
1,1,$1+$1,$6,$7*
1,1,$1+$1,$8,$9*
0 Add four rect primitives between the rounded corners*
20,1,$1+$1,$2,$3,$4,$5,0*
20,1,$1+$1,$4,$5,$6,$7,0*
20,1,$1+$1,$6,$7,$8,$9,0*
20,1,$1+$1,$8,$9,$2,$3,0*%
G04 Aperture macros list end*
%ADD10C,0.150000*%
%ADD11C,1.400000*%
%ADD12C,0.575000*%
%ADD13C,1.000000*%
%ADD14C,0.500000*%
%ADD15RoundRect,0.225000X0.475000X-0.225000X0.475000X0.225000X-0.475000X0.225000X-0.475000X-0.225000X0*%
%ADD16O,1.400000X0.900000*%
G04 APERTURE END LIST*
D10*
X203900000Y-148200000D02*
X205700000Y-148200000D01*
X205700000Y-149300000D01*
X203900000Y-149300000D01*
X203900000Y-148200000D01*
G36*
X203900000Y-148200000D02*
G01*
X205700000Y-148200000D01*
X205700000Y-149300000D01*
X203900000Y-149300000D01*
X203900000Y-148200000D01*
G37*
D11*
X205500000Y-150000000D02*
G75*
G03*
X205500000Y-150000000I-700000J0D01*
G01*
X200500000Y-150000000D02*
G75*
G03*
X200500000Y-150000000I-700000J0D01*
G01*
D12*
X196087500Y-152100000D02*
G75*
G03*
X196087500Y-152100000I-287500J0D01*
G01*
X196087500Y-147900000D02*
G75*
G03*
X196087500Y-147900000I-287500J0D01*
G01*
D13*
X205300000Y-148200000D02*
G75*
G03*
X205300000Y-148200000I-500000J0D01*
G01*
D10*
X198900000Y-148200000D02*
X200700000Y-148200000D01*
X200700000Y-149300000D01*
X198900000Y-149300000D01*
X198900000Y-148200000D01*
G36*
X198900000Y-148200000D02*
G01*
X200700000Y-148200000D01*
X200700000Y-149300000D01*
X198900000Y-149300000D01*
X198900000Y-148200000D01*
G37*
D13*
X200300000Y-148200000D02*
G75*
G03*
X200300000Y-148200000I-500000J0D01*
G01*
X205300000Y-140700000D02*
G75*
G03*
X205300000Y-140700000I-500000J0D01*
G01*
D10*
X198900000Y-140700000D02*
X200700000Y-140700000D01*
X200700000Y-141800000D01*
X198900000Y-141800000D01*
X198900000Y-140700000D01*
G36*
X198900000Y-140700000D02*
G01*
X200700000Y-140700000D01*
X200700000Y-141800000D01*
X198900000Y-141800000D01*
X198900000Y-140700000D01*
G37*
D13*
X200300000Y-140700000D02*
G75*
G03*
X200300000Y-140700000I-500000J0D01*
G01*
D12*
X196087500Y-144600000D02*
G75*
G03*
X196087500Y-144600000I-287500J0D01*
G01*
X196087500Y-140400000D02*
G75*
G03*
X196087500Y-140400000I-287500J0D01*
G01*
D10*
X203900000Y-140700000D02*
X205700000Y-140700000D01*
X205700000Y-141800000D01*
X203900000Y-141800000D01*
X203900000Y-140700000D01*
G36*
X203900000Y-140700000D02*
G01*
X205700000Y-140700000D01*
X205700000Y-141800000D01*
X203900000Y-141800000D01*
X203900000Y-140700000D01*
G37*
D11*
X205500000Y-142500000D02*
G75*
G03*
X205500000Y-142500000I-700000J0D01*
G01*
X200500000Y-142500000D02*
G75*
G03*
X200500000Y-142500000I-700000J0D01*
G01*
X200500000Y-134500000D02*
G75*
G03*
X200500000Y-134500000I-700000J0D01*
G01*
X205500000Y-134500000D02*
G75*
G03*
X205500000Y-134500000I-700000J0D01*
G01*
D10*
X203900000Y-132700000D02*
X205700000Y-132700000D01*
X205700000Y-133800000D01*
X203900000Y-133800000D01*
X203900000Y-132700000D01*
G36*
X203900000Y-132700000D02*
G01*
X205700000Y-132700000D01*
X205700000Y-133800000D01*
X203900000Y-133800000D01*
X203900000Y-132700000D01*
G37*
D12*
X196087500Y-132400000D02*
G75*
G03*
X196087500Y-132400000I-287500J0D01*
G01*
X196087500Y-136600000D02*
G75*
G03*
X196087500Y-136600000I-287500J0D01*
G01*
D13*
X200300000Y-132700000D02*
G75*
G03*
X200300000Y-132700000I-500000J0D01*
G01*
D10*
X198900000Y-132700000D02*
X200700000Y-132700000D01*
X200700000Y-133800000D01*
X198900000Y-133800000D01*
X198900000Y-132700000D01*
G36*
X198900000Y-132700000D02*
G01*
X200700000Y-132700000D01*
X200700000Y-133800000D01*
X198900000Y-133800000D01*
X198900000Y-132700000D01*
G37*
D13*
X205300000Y-132700000D02*
G75*
G03*
X205300000Y-132700000I-500000J0D01*
G01*
D14*
%TO.C,REF\u002A\u002A*%
X194600000Y-150000000D03*
%TD*%
%TO.C,REF\u002A\u002A*%
X207599558Y-148520828D03*
%TD*%
%TO.C,REF\u002A\u002A*%
X207599558Y-151700000D03*
%TD*%
%TO.C,REF\u002A\u002A*%
X207599558Y-150905207D03*
%TD*%
%TO.C,REF\u002A\u002A*%
X207599558Y-150110414D03*
%TD*%
%TO.C,REF\u002A\u002A*%
X207599558Y-149315621D03*
%TD*%
%TO.C,REF\u002A\u002A*%
X194700000Y-150900000D03*
%TD*%
%TO.C,REF\u002A\u002A*%
X194700000Y-149100000D03*
%TD*%
D15*
%TO.C,the 2plus2*%
X195950000Y-150600000D03*
D16*
X195950000Y-149350000D03*
%TD*%
D14*
%TO.C,REF\u002A\u002A*%
X194600000Y-142500000D03*
%TD*%
%TO.C,REF\u002A\u002A*%
X194700000Y-143400000D03*
%TD*%
D15*
%TO.C,the 2plus2*%
X195950000Y-143100000D03*
D16*
X195950000Y-141850000D03*
%TD*%
D14*
%TO.C,REF\u002A\u002A*%
X194700000Y-141600000D03*
%TD*%
%TO.C,REF\u002A\u002A*%
X207599558Y-141815621D03*
%TD*%
%TO.C,REF\u002A\u002A*%
X207599558Y-142610414D03*
%TD*%
%TO.C,REF\u002A\u002A*%
X207599558Y-144200000D03*
%TD*%
%TO.C,REF\u002A\u002A*%
X207599558Y-141020828D03*
%TD*%
%TO.C,REF\u002A\u002A*%
X207599558Y-143405207D03*
%TD*%
%TO.C,REF\u002A\u002A*%
X207599558Y-136200000D03*
%TD*%
%TO.C,REF\u002A\u002A*%
X207599558Y-135405207D03*
%TD*%
%TO.C,REF\u002A\u002A*%
X207599558Y-133815621D03*
%TD*%
%TO.C,REF\u002A\u002A*%
X207599558Y-134610414D03*
%TD*%
%TO.C,REF\u002A\u002A*%
X207599558Y-133020828D03*
%TD*%
%TO.C,REF\u002A\u002A*%
X194600000Y-134500000D03*
%TD*%
%TO.C,REF\u002A\u002A*%
X194700000Y-135400000D03*
%TD*%
%TO.C,REF\u002A\u002A*%
X194700000Y-133600000D03*
%TD*%
D15*
%TO.C,the 2plus2*%
X195950000Y-135100000D03*
D16*
X195950000Y-133850000D03*
%TD*%
M02*
